<?xml version="1.0" encoding="UTF-8"?>
<svg width="800" height="600" viewBox="0 0 800 600" xmlns="http://www.w3.org/2000/svg">
    <!-- Background -->
    <rect width="800" height="600" fill="#f8f9fa"/>
    
    <!-- Pipeline Stages with Details -->
    <g transform="translate(50, 100)">
        <!-- Code Stage -->
        <g transform="translate(0, 0)">
            <rect x="0" y="0" width="150" height="120" rx="10" fill="#2c3e50"/>
            <text x="75" y="30" font-family="Arial" font-size="16" fill="white" text-anchor="middle">Code</text>
            <rect x="15" y="45" width="120" height="60" rx="5" fill="rgba(255,255,255,0.1)"/>
            <text x="75" y="70" font-family="Arial" font-size="12" fill="white" text-anchor="middle">Git Repository</text>
            <text x="75" y="90" font-family="Arial" font-size="12" fill="white" text-anchor="middle">Version Control</text>
        </g>
        
        <!-- Build Stage -->
        <g transform="translate(200, 0)">
            <rect x="0" y="0" width="150" height="120" rx="10" fill="#3498db"/>
            <text x="75" y="30" font-family="Arial" font-size="16" fill="white" text-anchor="middle">Build</text>
            <rect x="15" y="45" width="120" height="60" rx="5" fill="rgba(255,255,255,0.1)"/>
            <text x="75" y="70" font-family="Arial" font-size="12" fill="white" text-anchor="middle">Compile Code</text>
            <text x="75" y="90" font-family="Arial" font-size="12" fill="white" text-anchor="middle">Package Assets</text>
        </g>
        
        <!-- Test Stage -->
        <g transform="translate(400, 0)">
            <rect x="0" y="0" width="150" height="120" rx="10" fill="#2ecc71"/>
            <text x="75" y="30" font-family="Arial" font-size="16" fill="white" text-anchor="middle">Test</text>
            <rect x="15" y="45" width="120" height="60" rx="5" fill="rgba(255,255,255,0.1)"/>
            <text x="75" y="65" font-family="Arial" font-size="12" fill="white" text-anchor="middle">Unit Tests</text>
            <text x="75" y="85" font-family="Arial" font-size="12" fill="white" text-anchor="middle">Integration Tests</text>
            <text x="75" y="105" font-family="Arial" font-size="12" fill="white" text-anchor="middle">Quality Gates</text>
        </g>
        
        <!-- Deploy Stage -->
        <g transform="translate(600, 0)">
            <rect x="0" y="0" width="150" height="120" rx="10" fill="#e74c3c"/>
            <text x="75" y="30" font-family="Arial" font-size="16" fill="white" text-anchor="middle">Deploy</text>
            <rect x="15" y="45" width="120" height="60" rx="5" fill="rgba(255,255,255,0.1)"/>
            <text x="75" y="70" font-family="Arial" font-size="12" fill="white" text-anchor="middle">Staging</text>
            <text x="75" y="90" font-family="Arial" font-size="12" fill="white" text-anchor="middle">Production</text>
        </g>
        
        <!-- Connecting Arrows -->
        <path d="M 150 60 L 200 60" stroke="#666" stroke-width="2" marker-end="url(#arrowhead)"/>
        <path d="M 350 60 L 400 60" stroke="#666" stroke-width="2" marker-end="url(#arrowhead)"/>
        <path d="M 550 60 L 600 60" stroke="#666" stroke-width="2" marker-end="url(#arrowhead)"/>
        
        <!-- Automation Tools -->
        <g transform="translate(0, 200)">
            <text x="75" y="0" font-family="Arial" font-size="14" fill="#666" text-anchor="middle">GitHub</text>
            <text x="275" y="0" font-family="Arial" font-size="14" fill="#666" text-anchor="middle">Jenkins/GitHub Actions</text>
            <text x="475" y="0" font-family="Arial" font-size="14" fill="#666" text-anchor="middle">Testing Framework</text>
            <text x="675" y="0" font-family="Arial" font-size="14" fill="#666" text-anchor="middle">Deployment Tools</text>
        </g>
        
        <!-- Data Flow Details -->
        <g transform="translate(0, 250)">
            <rect x="0" y="0" width="750" height="150" rx="10" fill="#f8f9fa" stroke="#ddd"/>
            <text x="375" y="30" font-family="Arial" font-size="16" fill="#2c3e50" text-anchor="middle">Data Pipeline Flow</text>
            
            <!-- Data Flow Steps -->
            <g transform="translate(50, 60)">
                <circle cx="0" cy="0" r="15" fill="#2c3e50"/>
                <text x="30" y="5" font-family="Arial" font-size="14" fill="#2c3e50">Source Data Validation</text>
                
                <circle cx="200" cy="0" r="15" fill="#3498db"/>
                <text x="230" y="5" font-family="Arial" font-size="14" fill="#2c3e50">Schema Updates</text>
                
                <circle cx="400" cy="0" r="15" fill="#2ecc71"/>
                <text x="430" y="5" font-family="Arial" font-size="14" fill="#2c3e50">Data Quality Checks</text>
                
                <circle cx="600" cy="0" r="15" fill="#e74c3c"/>
                <text x="630" y="5" font-family="Arial" font-size="14" fill="#2c3e50">Production Deploy</text>
            </g>
        </g>
    </g>
    
    <!-- Arrow Marker -->
    <defs>
        <marker id="arrowhead" markerWidth="10" markerHeight="7" refX="9" refY="3.5" orient="auto">
            <polygon points="0 0, 10 3.5, 0 7" fill="#666"/>
        </marker>
    </defs>
    
    <!-- Title -->
    <text x="400" y="50" font-family="Arial" font-size="24" font-weight="bold" fill="#2c3e50" text-anchor="middle">CI/CD Pipeline for Data Architecture</text>
</svg>